<svg width="85" height="86" viewBox="0 0 85 86" version="1.1" xmlns="http://www.w3.org/2000/svg"><title>img-icn-skill-3</title><g stroke="none" stroke-width="1" fill="none" fill-rule="evenodd"><g fill-rule="nonzero"><g><g><g transform="translate(.188 .438)"><circle fill="#7AC70C" cx="42.329" cy="42.329" r="42.329"/><path d="M65.967 43.968c-.008-7.82-6.028-14.318-13.825-14.923-7.796-.604-14.746 4.89-15.959 12.614-1.213 7.725 3.719 15.084 11.325 16.898a7.073 7.073 0 0 0 6.82 5.215v-5.208a14.976 14.976 0 0 0 11.64-14.596z" fill="#BFF199"/><path d="M52.256 36.134c.003-8.94-6.871-16.38-15.784-17.08-8.913-.702-16.866 5.571-18.26 14.402-1.395 8.831 4.238 17.25 12.933 19.329a8.088 8.088 0 0 0 7.796 5.962V52.83a17.127 17.127 0 0 0 13.315-16.695z" fill="#FFF"/></g></g></g></g></g></svg>